<?xml version="1.0" encoding="UTF-8" standalone="no"?>
<svg
   xmlns:dc="http://purl.org/dc/elements/1.1/"
   xmlns:cc="http://creativecommons.org/ns#"
   xmlns:rdf="http://www.w3.org/1999/02/22-rdf-syntax-ns#"
   xmlns:svg="http://www.w3.org/2000/svg"
   xmlns="http://www.w3.org/2000/svg"
   xmlns:sodipodi="http://sodipodi.sourceforge.net/DTD/sodipodi-0.dtd"
   xmlns:inkscape="http://www.inkscape.org/namespaces/inkscape"
   version="1.1"
   id="svg2"
   xml:space="preserve"
   width="793.70135"
   height="871.85333"
   viewBox="0 0 793.70135 871.85333"
   sodipodi:docname="T1.ai"><metadata
     id="metadata8"><rdf:RDF><cc:Work
         rdf:about=""><dc:format>image/svg+xml</dc:format><dc:type
           rdf:resource="http://purl.org/dc/dcmitype/StillImage" /></cc:Work></rdf:RDF></metadata><defs
     id="defs6"><clipPath
       clipPathUnits="userSpaceOnUse"
       id="clipPath18"><path
         d="M 0,653.89 H 595.276 V 0 H 0 Z"
         id="path16" /></clipPath></defs><sodipodi:namedview
     pagecolor="#ffffff"
     bordercolor="#666666"
     borderopacity="1"
     objecttolerance="10"
     gridtolerance="10"
     guidetolerance="10"
     inkscape:pageopacity="0"
     inkscape:pageshadow="2"
     inkscape:window-width="640"
     inkscape:window-height="480"
     id="namedview4" /><g
     id="g10"
     inkscape:groupmode="layer"
     inkscape:label="T1"
     transform="matrix(1.3333333,0,0,-1.3333333,0,871.85333)"><g
       id="g12"><g
         id="g14"
         clip-path="url(#clipPath18)"><g
           id="g20"
           transform="translate(216.9214,282.2025)"><path
             d="m 0,0 c 0,0 -15.315,-10.331 3.884,-23.891 0,0 -20.377,-7.552 29.762,-25.601 0,0 -35.403,-12.201 -63.146,-4.832 0,0 8.044,-11.668 29.628,-14.649 0,0 12.997,-5.521 -1.681,-9.352 0,0 -19.32,-5.918 -3.391,-16.272 0,0 -14.464,-50.488 51.275,-81.329 0,0 1.452,28.014 7.88,30.933 0,0 -9.465,10.432 1.621,14.221 0,0 -12.308,7.963 -0.214,17.444 0,0 13.49,12.743 15.53,22.099 0,0 -0.907,15.408 8.738,19.583 0,0 32.107,17.435 27.57,65.256 0,0 -21.594,3.792 -23.41,5.393 0,0 20.841,-0.962 26.232,-1.301 0,0 -72.711,13.714 -110.278,2.298"
             style="fill:#ffffff;fill-opacity:1;fill-rule:nonzero;stroke:none"
             id="path22" /></g><g
           id="g24"
           transform="translate(171.499,290.766)"><path
             d="m 0,0 c 0,0 -54.504,-149.479 96.918,-185.513 0,0 -16.996,1.619 -15.18,-14.98 0,0 2.64,-8.098 9.111,-9.313 0,0 3.142,-2.428 8.248,0 0,0 16.904,-18.624 41.978,12.552 l 12.446,-0.405 c 0,0 1.697,-3.239 5.746,-4.453 0,0 0.049,-8.503 9.134,-7.288 0,0 4.431,-16.196 48.056,-2.025 0,0 18.117,10.527 26.215,12.147 0,0 17.814,-34.415 52.634,-10.528 0,0 37.249,40.489 -11.337,59.113 0,0 44.942,97.328 -48.99,150.693 C 234.979,0 131.03,-40.005 0,0"
             style="fill:#f9a14b;fill-opacity:1;fill-rule:nonzero;stroke:none"
             id="path26" /></g><g
           id="g28"
           transform="translate(171.499,290.766)"><path
             d="m 0,0 c 0,0 -54.504,-149.479 96.918,-185.513 0,0 -16.996,1.619 -15.18,-14.98 0,0 2.64,-8.098 9.111,-9.313 0,0 3.142,-2.428 8.248,0 0,0 16.904,-18.624 41.978,12.552 l 12.446,-0.405 c 0,0 1.697,-3.239 5.746,-4.453 0,0 0.049,-8.503 9.134,-7.288 0,0 4.431,-16.196 48.056,-2.025 0,0 18.117,10.527 26.215,12.147 0,0 17.814,-34.415 52.634,-10.528 0,0 37.249,40.489 -11.337,59.113 0,0 44.942,97.328 -48.99,150.693 C 234.979,0 131.03,-40.005 0,0 Z"
             style="fill:none;stroke:#605c55;stroke-width:2;stroke-linecap:butt;stroke-linejoin:miter;stroke-miterlimit:10;stroke-dasharray:none;stroke-opacity:1"
             id="path30" /></g><g
           id="g32"
           transform="translate(364.2187,279.7474)"><path
             d="m 0,0 c 0,0 6.533,-24.284 -5.97,-40.075 0,0 -23.839,-19.03 -15.337,-40.893 0,0 1.894,22.674 23.013,35.63 0,0 23.101,16.239 14.62,48.81 z"
             style="fill:#605c55;fill-opacity:1;fill-rule:nonzero;stroke:none"
             id="path34" /></g><g
           id="g36"
           transform="translate(397.1738,287.7719)"><path
             d="m 0,0 c 0,0 12.543,-47.909 5.66,-66.224 0,0 14.545,41.445 8.69,66.224 0,0 -5.03,5.992 -14.35,0"
             style="fill:#605c55;fill-opacity:1;fill-rule:nonzero;stroke:none"
             id="path38" /></g><g
           id="g40"
           transform="translate(354.3145,279.1996)"><path
             d="m 0,0 c 0,0 -8.361,-54.84 -56.038,-79.573 0,0 -7.395,-8.539 -2.433,-13.803 0,0 -12.046,-21.025 -21.221,-25.931 0,0 -6.876,-9.293 4.39,-12.532 0,0 -11.621,-6.668 -5.226,-12.443 0,0 -5.067,-16.837 -6.41,-27.531 0,0 -88.845,25.803 -12.728,100.3 0,0 -21.863,-19.123 -36.843,-23.732 0,0 -13.412,6.727 2.808,14.825 0,0 11.036,4.049 3.709,8.098 0,0 -25.444,3.077 -31.366,13.887 0,0 18.687,-5.862 65.12,4.332 0,0 -49.895,13.362 -31.52,25.913 0,0 -19.604,13.093 -2.234,27.398 0,0 78.234,-15.96 129.992,0.792"
             style="fill:#ffffff;fill-opacity:1;fill-rule:nonzero;stroke:none"
             id="path42" /></g><g
           id="g44"
           transform="translate(337.167,277.3568)"><path
             d="m 0,0 c 0,0 -10.362,-40.957 -57.696,-52.496 0,0 26.468,-3.454 32.772,2.822 0,0 -38.189,-23.804 -44.866,-40.493 0,0 74.89,15.646 86.937,92.01 z"
             style="fill:#605c55;fill-opacity:1;fill-rule:nonzero;stroke:none"
             id="path46" /></g><g
           id="g48"
           transform="translate(324.3359,271.0228)"><path
             d="m 0,0 c 95.716,-5.423 118.805,66.952 118.805,66.952 21.587,61.303 -13.353,102.138 -28.765,116.433 -3.272,3.035 -3.571,8.052 -0.811,11.558 12.762,16.206 4.062,36.551 2.439,39.993 -0.147,0.314 -0.316,0.619 -0.501,0.914 -13.122,20.886 -26.312,16.467 -30.712,14.14 -0.757,-0.399 -1.434,-0.906 -2.032,-1.518 -3.222,-3.297 -13.541,-7.568 -15.873,-8.507 -0.31,-0.125 -0.627,-0.227 -0.949,-0.313 -6.817,-1.816 -11.244,-4.251 -13.999,-6.284 -2.584,-1.907 -6.029,-2.16 -8.877,-0.677 -7.107,3.698 -22.136,8.397 -46.248,1.25 -0.339,-0.1 -0.69,-0.181 -1.039,-0.237 l -7.426,-1.181 -6.523,1.261 c -0.345,0.054 -0.691,0.133 -1.025,0.232 -24.355,7.142 -39.512,2.447 -46.633,-1.208 -2.817,-1.446 -6.219,-1.194 -8.773,0.678 -2.766,2.027 -7.237,4.471 -14.154,6.293 -0.319,0.084 -0.632,0.184 -0.938,0.306 -2.33,0.927 -12.731,5.177 -15.968,8.448 -0.599,0.606 -1.277,1.105 -2.031,1.499 -4.416,2.308 -17.685,6.719 -30.928,-13.934 -0.19,-0.296 -0.363,-0.602 -0.515,-0.919 -1.644,-3.417 -10.364,-23.421 2.294,-39.444 2.8,-3.544 2.5,-8.614 -0.838,-11.657 -15.583,-14.208 -50.595,-54.517 -29.021,-115.077 0,0 23.118,-71.654 119.433,-66.437 z"
             style="fill:#ffffff;fill-opacity:1;fill-rule:nonzero;stroke:none"
             id="path50" /></g><g
           id="g52"
           transform="translate(324.3359,271.0228)"><path
             d="m 0,0 c 95.716,-5.423 118.805,66.952 118.805,66.952 21.587,61.303 -13.353,102.138 -28.765,116.433 -3.272,3.035 -3.571,8.052 -0.811,11.558 12.762,16.206 4.062,36.551 2.439,39.993 -0.147,0.314 -0.316,0.619 -0.501,0.914 -13.122,20.886 -26.312,16.467 -30.712,14.14 -0.757,-0.399 -1.434,-0.906 -2.032,-1.518 -3.222,-3.297 -13.541,-7.568 -15.873,-8.507 -0.31,-0.125 -0.627,-0.227 -0.949,-0.313 -6.817,-1.816 -11.244,-4.251 -13.999,-6.284 -2.584,-1.907 -6.029,-2.16 -8.877,-0.677 -7.107,3.698 -22.136,8.397 -46.248,1.25 -0.339,-0.1 -0.69,-0.181 -1.039,-0.237 l -7.426,-1.181 -6.523,1.261 c -0.345,0.054 -0.691,0.133 -1.025,0.232 -24.355,7.142 -39.512,2.447 -46.633,-1.208 -2.817,-1.446 -6.219,-1.194 -8.773,0.678 -2.766,2.027 -7.237,4.471 -14.154,6.293 -0.319,0.084 -0.632,0.184 -0.938,0.306 -2.33,0.927 -12.731,5.177 -15.968,8.448 -0.599,0.606 -1.277,1.105 -2.031,1.499 -4.416,2.308 -17.685,6.719 -30.928,-13.934 -0.19,-0.296 -0.363,-0.602 -0.515,-0.919 -1.644,-3.417 -10.364,-23.421 2.294,-39.444 2.8,-3.544 2.5,-8.614 -0.838,-11.657 -15.583,-14.208 -50.595,-54.517 -29.021,-115.077 0,0 23.118,-71.654 119.433,-66.437 z"
             style="fill:none;stroke:#5f5c55;stroke-width:3;stroke-linecap:butt;stroke-linejoin:miter;stroke-miterlimit:10;stroke-dasharray:none;stroke-opacity:1"
             id="path54" /></g><g
           id="g56"
           transform="translate(229.3296,500.5609)"><path
             d="m 0,0 c 0,0 -48.224,-24.255 -30.558,-66.092 0,0 1.028,-2.732 -1.157,-5.499 0,0 -10.247,-9.112 0.399,-19.447 0,0 6.084,-4.48 -0.702,-9.934 0,0 -17.968,-8.924 -4.486,-18.445 0,0 4.511,-1.612 5.236,-10.397 0,0 -1.4,-22.589 36.575,-15.304 0,0 8.286,0.93 10.468,-5.478 0,0 0.128,-20.476 31.467,-22.106 0,0 33.207,-9.243 56.292,24.468 0,0 6.11,5.551 19.816,-0.229 0,0 50.183,-6.433 36.472,40.77 0,0 -13.761,37.435 -12.611,47.737 0,0 2.949,42.479 -29.669,59.72 0,0 -16.08,14.778 -58.523,3.127 C 59.019,2.891 19.44,14.681 0,0"
             style="fill:#f9a14b;fill-opacity:1;fill-rule:nonzero;stroke:none"
             id="path58" /></g><g
           id="g60"
           transform="translate(210.8955,418.9926)"><path
             d="m 0,0 c -0.347,-2.894 -1.233,-5.747 -0.715,-8.712 0.022,-0.123 -0.348,-0.309 -0.535,-0.466 0.853,-4.375 2.045,-8.712 5.144,-12.097 1.936,-2.116 3.162,-3.719 1.032,-6.371 -0.843,-1.05 -0.536,-2.703 -0.055,-4.044 2.019,-5.636 6.021,-9.793 10.859,-13.323 0.49,-0.357 1.089,-0.407 1.596,-0.687 3.347,-1.19 6.562,-2.726 10.097,-3.42 6.555,-1.288 13.018,-2.526 19.606,0.251 5.591,2.356 8.388,6.422 9.675,11.915 1.518,6.488 -0.053,12.888 -0.267,19.325 -0.174,5.191 -1.028,10.429 1.015,15.48 0.465,1.149 1.074,2.244 1.618,3.364 0.367,0.325 0.495,0.785 0.734,1.183 1.225,2.823 3.154,5.278 4.339,8.155 3.347,8.133 0.246,16.107 -7.805,20.264 C 48.229,35.003 39.793,34.9 31.435,32.423 16.24,27.919 6.943,17.447 1.364,3.551 1.153,3.024 0.928,2.502 0.71,1.978 0.416,1.338 0.335,0.627 0,0"
             style="fill:#ffffff;fill-opacity:1;fill-rule:nonzero;stroke:none"
             id="path62" /></g><g
           id="g64"
           transform="translate(360.5889,422.9159)"><path
             d="m 0,0 c 0.341,-2.961 1.211,-5.88 0.702,-8.915 -0.02,-0.126 0.342,-0.317 0.527,-0.477 -0.839,-4.477 -2.011,-8.914 -5.055,-12.379 -1.903,-2.164 -3.108,-3.805 -1.015,-6.52 0.828,-1.074 0.528,-2.765 0.055,-4.137 -1.985,-5.768 -5.917,-10.022 -10.67,-13.633 -0.482,-0.366 -1.07,-0.417 -1.568,-0.704 -3.289,-1.217 -6.449,-2.789 -9.922,-3.5 -6.441,-1.318 -12.791,-2.585 -19.265,0.257 -5.493,2.412 -8.243,6.572 -9.506,12.193 -1.492,6.64 0.051,13.188 0.262,19.775 0.171,5.312 1.01,10.672 -0.997,15.84 -0.457,1.176 -1.057,2.297 -1.59,3.444 -0.361,0.331 -0.487,0.803 -0.722,1.21 -1.204,2.889 -3.099,5.401 -4.262,8.344 -3.29,8.324 -0.243,16.483 7.669,20.737 7.966,4.284 16.255,4.179 24.469,1.644 C -15.957,28.57 -6.822,17.853 -1.341,3.634 -1.133,3.095 -0.912,2.561 -0.698,2.024 -0.409,1.369 -0.329,0.642 0,0"
             style="fill:#ffffff;fill-opacity:1;fill-rule:nonzero;stroke:none"
             id="path66" /></g><g
           id="g68"
           transform="translate(311.9082,376.2113)"><path
             d="m 0,0 c -3.852,3.229 -4.75,7.62 -4.889,12.226 -0.124,4.111 0.886,7.954 3.592,11.205 1.506,1.809 3.378,2.878 5.788,2.829 11.379,-0.234 22.747,0.337 34.122,0.439 2.899,0.027 3.776,-0.828 3.097,-3.57 C 39.041,12.344 30.336,1.748 16.708,0.857 12.056,0.554 7.694,1.669 3.72,4.057 2.11,5.023 1.439,4.826 1.052,2.977 0.849,2.006 0.789,0.919 0,0"
             style="fill:#3b3634;fill-opacity:1;fill-rule:nonzero;stroke:none"
             id="path70" /></g><g
           id="g72"
           transform="translate(340.5361,400.6859)"><path
             d="m 0,0 c 4.297,-0.012 4.3,-0.012 3.916,-3.995 -0.613,-6.364 -4.157,-10.629 -9.945,-12.799 -5.795,-2.172 -11.286,-1.1 -16.016,3.005 -3.028,2.628 -4.78,6 -5.414,9.973 -0.287,1.795 0.218,2.904 2.167,3.077 0.589,0.052 1.17,0.189 1.757,0.256 2.951,0.335 2.951,0.331 3.137,-2.612 0.259,-4.134 3.95,-7.536 8.21,-7.567 4.506,-0.034 8.52,3.514 8.826,7.801 C -3.157,0.009 -3.158,0.009 0,0"
             style="fill:#7ca7c0;fill-opacity:1;fill-rule:nonzero;stroke:none"
             id="path74" /></g><g
           id="g76"
           transform="translate(329.6475,385.0883)"><path
             d="m 0,0 c -6.349,0.025 -11.3,3.109 -13.18,7.86 -0.317,0.805 -0.661,1.699 0.334,2.116 0.896,0.374 1.213,-0.522 1.565,-1.183 C -7.813,2.273 2.074,0.966 7.244,6.385 8.011,7.187 8.664,8.188 9.742,7.173 10.698,6.271 9.794,5.376 9.206,4.656 6.7,1.591 3.352,0.235 0,0"
             style="fill:#c4e2f0;fill-opacity:1;fill-rule:nonzero;stroke:none"
             id="path78" /></g><g
           id="g80"
           transform="translate(342.8867,396.9701)"><path
             d="m 0,0 c -0.214,-1.383 -0.973,-2.408 -2.418,-2.417 -1.324,-0.008 -2.28,0.917 -2.324,2.245 -0.048,1.447 0.911,2.424 2.345,2.44 C -1.07,2.282 -0.292,1.332 0,0"
             style="fill:#c1dfed;fill-opacity:1;fill-rule:nonzero;stroke:none"
             id="path82" /></g><g
           id="g84"
           transform="translate(261.0298,374.1859)"><path
             d="M 0,0 C 3.842,3.187 4.738,7.519 4.876,12.063 5,16.12 3.993,19.913 1.293,23.121 c -1.502,1.785 -3.37,2.84 -5.774,2.791 -11.352,-0.23 -22.694,0.333 -34.041,0.434 -2.892,0.026 -3.767,-0.818 -3.09,-3.523 2.663,-10.642 11.348,-21.098 24.943,-21.977 4.642,-0.3 8.992,0.8 12.958,3.156 1.606,0.954 2.275,0.76 2.661,-1.064 C -0.847,1.979 -0.788,0.907 0,0"
             style="fill:#3b3634;fill-opacity:1;fill-rule:nonzero;stroke:none"
             id="path86" /></g><g
           id="g88"
           transform="translate(232.4692,398.3363)"><path
             d="m 0,0 c -4.287,-0.012 -4.29,-0.012 -3.907,-3.941 0.612,-6.281 4.147,-10.49 9.922,-12.63 5.782,-2.144 11.259,-1.086 15.978,2.965 3.021,2.592 4.769,5.92 5.402,9.84 0.286,1.773 -0.218,2.867 -2.163,3.037 -0.587,0.051 -1.167,0.187 -1.753,0.252 -2.943,0.331 -2.944,0.328 -3.129,-2.577 -0.259,-4.08 -3.941,-7.435 -8.191,-7.467 C 7.664,-10.555 3.66,-7.054 3.354,-2.823 3.15,0.009 3.15,0.009 0,0"
             style="fill:#7ca7c0;fill-opacity:1;fill-rule:nonzero;stroke:none"
             id="path90" /></g><g
           id="g92"
           transform="translate(243.332,382.9447)"><path
             d="m 0,0 c 6.333,0.025 11.273,3.069 13.148,7.757 0.317,0.794 0.661,1.676 -0.333,2.087 -0.893,0.37 -1.21,-0.515 -1.561,-1.166 C 7.795,2.244 -2.069,0.954 -7.227,6.301 -7.991,7.093 -8.643,8.08 -9.719,7.078 -10.673,6.189 -9.771,5.306 -9.184,4.596 -6.684,1.57 -3.344,0.232 0,0"
             style="fill:#c4e2f0;fill-opacity:1;fill-rule:nonzero;stroke:none"
             id="path94" /></g><g
           id="g96"
           transform="translate(230.125,394.6703)"><path
             d="M 0,0 C 0.213,-1.364 0.97,-2.377 2.411,-2.386 3.732,-2.394 4.687,-1.48 4.73,-0.17 4.778,1.258 3.821,2.222 2.391,2.237 1.067,2.251 0.291,1.314 0,0"
             style="fill:#c1dfed;fill-opacity:1;fill-rule:nonzero;stroke:none"
             id="path98" /></g><g
           id="g100"
           transform="translate(343.4687,375.432)"><path
             d="m 0,0 c 4.358,3.45 8.481,7.104 10.899,12.282 1.921,4.114 1.57,6.397 -1.547,9.549 4.734,3.576 6.97,8.581 8.094,14.212 0.111,0.555 0.005,1.208 0.807,1.33 1.869,-2.629 2.132,-5.607 1.895,-8.695 0.081,-0.891 -0.272,-1.65 -0.726,-2.377 -0.526,-0.801 -0.922,-1.746 -1.61,-2.371 -1.059,-0.962 -1.157,-1.622 0.111,-2.418 1.95,-1.224 2.09,-3.383 2.633,-5.325 0.24,-0.23 0.237,-0.459 -0.003,-0.688 C 20.041,10.927 17.634,7.628 13.729,5.333 12.717,4.963 11.532,4.905 10.925,3.794 7.499,1.906 3.895,0.537 0,0"
             style="fill:#605c55;fill-opacity:1;fill-rule:nonzero;stroke:none"
             id="path102" /></g><g
           id="g104"
           transform="translate(262.6997,410.6107)"><path
             d="m 0,0 c -12.124,-0.657 -19.024,10.464 -17.894,19.697 0.571,4.661 2.216,8.895 6.199,11.778 4.596,3.328 9.407,1.242 10.419,-4.517 C -0.75,23.966 -1.228,21.05 -2.52,18.297 -3.094,17.076 -3.767,15.9 -4.407,14.71 -7.513,8.941 -6.198,4.181 -0.565,0.812 -0.311,0.659 0.077,0.625 0,0"
             style="fill:#5f5c55;fill-opacity:1;fill-rule:nonzero;stroke:none"
             id="path106" /></g><g
           id="g108"
           transform="translate(241.9302,412.0912)"><path
             d="m 0,0 c -8.347,-0.747 -14.307,4.214 -15.865,13.011 -1.823,-3.123 -0.736,-6.983 3.739,-13.267 -5.014,-0.763 -9.579,3.014 -10.804,7.508 -1.442,5.295 0.841,9.887 5.956,11.834 0.804,0.306 1.276,0.771 1.701,1.434 2.573,4.018 5.938,6.929 10.83,7.68 0.38,0.059 0.766,0.114 1.149,0.113 0.693,0 1.636,0.253 1.933,-0.479 0.311,-0.768 -0.705,-0.939 -1.165,-1.302 -1.772,-1.4 -2.477,-3.43 -3.237,-5.402 C -7.642,16.26 -8.309,11.397 -6.388,6.266 -5.187,3.056 -3.094,1.167 0,0"
             style="fill:#5f5c55;fill-opacity:1;fill-rule:nonzero;stroke:none"
             id="path110" /></g><g
           id="g112"
           transform="translate(339.8711,412.015)"><path
             d="m 0,0 c 2.141,2.217 3.512,4.71 4.118,7.602 0.174,0.834 0.308,1.642 -0.083,2.45 -0.633,1.307 -1.81,1.48 -2.733,0.375 C 1.015,10.083 0.74,9.709 0.548,9.307 -1.585,4.858 -5.808,3.355 -9.996,1.806 c -0.362,-0.134 -0.753,-0.204 -1.287,0.224 1.478,1.721 2.949,3.455 4.102,5.437 3.234,5.553 3.832,11.377 2.059,17.499 -0.035,0.123 -0.11,0.237 -0.135,0.361 -0.313,1.604 -1.14,3.326 0.937,4.417 1.805,0.949 3.605,0.531 5.112,-1.325 C 2.523,26.285 3.256,23.792 3.115,21.044 3.079,20.338 2.938,19.801 4.138,19.846 10.157,20.075 14.387,14.192 12.509,8.354 11.058,3.845 5.099,-0.218 0,0"
             style="fill:#5f5c55;fill-opacity:1;fill-rule:nonzero;stroke:none"
             id="path114" /></g><g
           id="g116"
           transform="translate(312.209,413.9916)"><path
             d="m 0,0 c -0.361,1.231 0.296,1.984 0.57,2.786 1.829,5.357 1.136,10.661 -0.296,15.931 -0.543,1.996 -0.928,4.006 -1.173,6.047 -0.31,2.584 0.805,4.695 2.768,5.379 2.438,0.849 4.35,0.087 5.97,-2.208 2.637,-3.733 3.006,-7.818 2.137,-12.161 C 8.676,9.283 4.614,4.593 0,0"
             style="fill:#5f5c55;fill-opacity:1;fill-rule:nonzero;stroke:none"
             id="path118" /></g><g
           id="g120"
           transform="translate(197.7778,436.7196)"><path
             d="m 0,0 c 0,0 4.146,-4.251 -3.434,-11.251 0,0 -6.238,-6.899 2.505,-15.339 0,0 11.213,-4.705 -4.543,-14.451 0,0 -7.945,-4.671 -0.911,-12.735 0,0 8.041,-5.146 6.924,-14.381 0,0 0.967,-19.231 33.281,-13.21 0,0 -36.897,-21.268 -45.675,13.966 0,0 -1.522,6.493 -5.354,9.098 0,0 -15.278,12.309 5.076,22.907 0,0 5.17,2.698 0.791,9.513 0,0 -10.193,8.625 5.81,17.133 0,0 7.113,2.875 5.53,8.75"
             style="fill:#5f5c55;fill-opacity:1;fill-rule:nonzero;stroke:none"
             id="path122" /></g><g
           id="g124"
           transform="translate(304.75,349.7797)"><path
             d="m 0,0 c 0,-1.419 -2.449,-2.568 -5.471,-2.568 -3.021,0 -5.47,1.149 -5.47,2.568 0,1.418 2.449,2.567 5.47,2.567 C -2.449,2.567 0,1.418 0,0"
             style="fill:#ffffff;fill-opacity:1;fill-rule:nonzero;stroke:none"
             id="path126" /></g><g
           id="g128"
           transform="translate(379.5937,424.9867)"><path
             d="m 0,0 c 0,0 1.32,-8.946 -0.278,-16.223 0,0 -5.695,-8.688 3.912,-15.965 0,0 9.044,-7.589 -1.521,-17.46 0,0 3.872,-23.861 -29.027,-22.493 0,0 28.081,-16.862 43.634,8.931 0,0 2.66,4.101 0,9.83 0,0 11.706,11.234 -2.947,23.421 0,0 -8.501,4.371 -5.744,12.576 0,0 2.673,11.008 -8.029,17.383"
             style="fill:#5f5c55;fill-opacity:1;fill-rule:nonzero;stroke:none"
             id="path130" /></g><g
           id="g132"
           transform="translate(288.8564,353.4486)"><path
             d="m 0,0 c 0,0 -19.58,12.612 -26.149,-8.455 0,0 -2.968,-22.646 28.124,-22.255 0,0 27.513,1.244 21.58,27.921 0,0 -7.206,16.554 -23.555,2.789"
             style="fill:#5f5c55;fill-opacity:1;fill-rule:nonzero;stroke:none"
             id="path134" /></g><g
           id="g136"
           transform="translate(261.6445,328.2474)"><path
             d="M 0,0 -18.993,4.094"
             style="fill:none;stroke:#5f5c55;stroke-width:2;stroke-linecap:butt;stroke-linejoin:miter;stroke-miterlimit:10;stroke-dasharray:none;stroke-opacity:1"
             id="path138" /></g><g
           id="g140"
           transform="translate(290.0464,323.3461)"><path
             d="m 0,0 v -10.193 l -4.181,-5.585"
             style="fill:none;stroke:#5f5c55;stroke-width:2;stroke-linecap:butt;stroke-linejoin:miter;stroke-miterlimit:10;stroke-dasharray:none;stroke-opacity:1"
             id="path142" /></g><g
           id="g144"
           transform="translate(290.0464,313.1527)"><path
             d="M 0,0 6.271,-5.585"
             style="fill:none;stroke:#5f5c55;stroke-width:2;stroke-linecap:butt;stroke-linejoin:miter;stroke-miterlimit:10;stroke-dasharray:none;stroke-opacity:1"
             id="path146" /></g><g
           id="g148"
           transform="translate(259.0479,322.0316)"><path
             d="M 0,0 -22.079,0.353"
             style="fill:none;stroke:#5f5c55;stroke-width:2;stroke-linecap:butt;stroke-linejoin:miter;stroke-miterlimit:10;stroke-dasharray:none;stroke-opacity:1"
             id="path150" /></g><g
           id="g152"
           transform="translate(259.8164,317.6986)"><path
             d="M 0,0 -19.174,-8.485"
             style="fill:none;stroke:#5f5c55;stroke-width:2;stroke-linecap:butt;stroke-linejoin:miter;stroke-miterlimit:10;stroke-dasharray:none;stroke-opacity:1"
             id="path154" /></g><g
           id="g156"
           transform="translate(317.9375,334.1888)"><path
             d="M 0,0 22.197,11.611"
             style="fill:none;stroke:#5f5c55;stroke-width:2;stroke-linecap:butt;stroke-linejoin:miter;stroke-miterlimit:10;stroke-dasharray:none;stroke-opacity:1"
             id="path158" /></g><g
           id="g160"
           transform="translate(319.9932,329.5531)"><path
             d="M 0,0 24.102,1.314"
             style="fill:none;stroke:#5f5c55;stroke-width:2;stroke-linecap:butt;stroke-linejoin:miter;stroke-miterlimit:10;stroke-dasharray:none;stroke-opacity:1"
             id="path162" /></g><g
           id="g164"
           transform="translate(319.1211,321.4877)"><path
             d="M 0,0 22.542,-1.043"
             style="fill:none;stroke:#5f5c55;stroke-width:2;stroke-linecap:butt;stroke-linejoin:miter;stroke-miterlimit:10;stroke-dasharray:none;stroke-opacity:1"
             id="path166" /></g><g
           id="g168"
           transform="translate(210.8345,331.806)"><path
             d="m 0,0 c 0,-7.625 -10.841,-13.806 -24.213,-13.806 -13.372,0 -24.213,6.181 -24.213,13.806 0,7.625 10.841,13.807 24.213,13.807 C -10.841,13.807 0,7.625 0,0"
             style="fill:#e49d8b;fill-opacity:1;fill-rule:nonzero;stroke:none"
             id="path170" /></g><g
           id="g172"
           transform="translate(210.8345,331.806)"><path
             d="m 0,0 c 0,-7.625 -10.841,-13.806 -24.213,-13.806 -13.372,0 -24.213,6.181 -24.213,13.806 0,7.625 10.841,13.807 24.213,13.807 C -10.841,13.807 0,7.625 0,0 Z"
             style="fill:none;stroke:#605d56;stroke-width:2;stroke-linecap:butt;stroke-linejoin:miter;stroke-miterlimit:10;stroke-dasharray:none;stroke-opacity:1"
             id="path174" /></g><g
           id="g176"
           transform="translate(408.3252,330.6283)"><path
             d="m 0,0 c 0,-7.625 -10.84,-13.807 -24.213,-13.807 -13.372,0 -24.213,6.182 -24.213,13.807 0,7.625 10.841,13.806 24.213,13.806 C -10.84,13.806 0,7.625 0,0"
             style="fill:#e49d8b;fill-opacity:1;fill-rule:nonzero;stroke:none"
             id="path178" /></g><g
           id="g180"
           transform="translate(408.3252,330.6283)"><path
             d="m 0,0 c 0,-7.625 -10.84,-13.807 -24.213,-13.807 -13.372,0 -24.213,6.182 -24.213,13.807 0,7.625 10.841,13.806 24.213,13.806 C -10.84,13.806 0,7.625 0,0 Z"
             style="fill:none;stroke:#605d56;stroke-width:2;stroke-linecap:butt;stroke-linejoin:miter;stroke-miterlimit:10;stroke-dasharray:none;stroke-opacity:1"
             id="path182" /></g><g
           id="g184"
           transform="translate(228.7432,373.223)"><path
             d="m 0,0 c -4.334,3.525 -8.439,7.268 -10.899,12.624 -1.955,4.256 -1.648,6.641 1.354,9.977 -4.705,3.65 -6.983,8.83 -8.182,14.68 -0.117,0.575 -0.025,1.259 -0.813,1.373 -1.788,-2.769 -1.995,-5.879 -1.71,-9.092 -0.063,-0.93 0.295,-1.714 0.753,-2.465 0.53,-0.827 0.934,-1.806 1.619,-2.446 1.055,-0.985 1.163,-1.672 -0.067,-2.521 -1.892,-1.307 -1.992,-3.559 -2.491,-5.592 -0.231,-0.244 -0.225,-0.482 0.015,-0.717 0.58,-4.757 2.997,-8.156 6.865,-10.484 1,-0.37 2.162,-0.411 2.777,-1.559 C -7.388,1.866 -3.829,0.497 0,0"
             style="fill:#605c55;fill-opacity:1;fill-rule:nonzero;stroke:none"
             id="path186" /></g><g
           id="g188"
           transform="translate(224.0635,453.9027)"><path
             d="m 0,0 c 0,0 16.271,-0.047 25.125,6.221 0,0 22.456,7.948 31.134,-1.203 0,0 15.611,11.817 29.999,4.607 0,0 25.52,-7.511 42.25,-2.866 0,0 -22.248,3.19 -37.299,12.286 0,0 -23.087,11.124 -33.871,-2.704 0,0 -10.054,18.254 -59.219,-15.946"
             style="fill:#5f5c55;fill-opacity:1;fill-rule:nonzero;stroke:none"
             id="path190" /></g><g
           id="g192"
           transform="translate(219.6147,466.9462)"><path
             d="M 0,0 C 0,0 21.529,22.932 56.754,13.523 56.754,13.523 20.571,44.589 0,0"
             style="fill:#5f5c55;fill-opacity:1;fill-rule:nonzero;stroke:none"
             id="path194" /></g><g
           id="g196"
           transform="translate(290.1265,482.3427)"><path
             d="M 0,0 C 0,0 28.904,12.407 57.425,-10.306 57.425,-10.306 36.688,32.64 0,0"
             style="fill:#5f5c55;fill-opacity:1;fill-rule:nonzero;stroke:none"
             id="path198" /></g><g
           id="g200"
           transform="translate(199.9868,515.1444)"><path
             d="m 0,0 c 0,0 -18.718,-11.576 -11.366,-16.575 1.49,-1.013 3.383,-1.248 5.127,-0.8 4.105,1.052 13.035,4.215 17.986,12.559 l 10.164,-5.055 c 0,0 -20.064,-43.783 -50.904,-26.115 0,0 -20.314,14.311 15.42,42.842 z"
             style="fill:#5f5c55;fill-opacity:1;fill-rule:nonzero;stroke:none"
             id="path202" /></g><g
           id="g204"
           transform="translate(376.6953,515.0692)"><path
             d="m 0,0 c 0,0 14.972,-12.821 8.371,-17.304 -1.337,-0.908 -2.957,-1.013 -4.4,-0.447 -3.395,1.33 -10.716,5.093 -14.278,13.752 l -8.985,-4.346 c 0,0 13.684,-45.028 41.122,-29.518 0,0 18.274,12.882 -9.823,43.773 z"
             style="fill:#5f5c55;fill-opacity:1;fill-rule:nonzero;stroke:none"
             id="path206" /></g><g
           id="g208"
           transform="translate(304.2324,350.2396)"><path
             d="m 0,0 c 0,-1.454 -2.333,-2.634 -5.212,-2.634 -2.878,0 -5.211,1.18 -5.211,2.634 0,1.454 2.333,2.633 5.211,2.633 C -2.333,2.633 0,1.454 0,0"
             style="fill:#ffffff;fill-opacity:1;fill-rule:nonzero;stroke:none"
             id="path210" /></g><g
           id="g212"
           transform="translate(268.1533,322.2562)"><path
             d="m 0,0 c 0,-0.602 -0.488,-1.09 -1.09,-1.09 -0.602,0 -1.09,0.488 -1.09,1.09 0,0.602 0.488,1.09 1.09,1.09 C -0.488,1.09 0,0.602 0,0"
             style="fill:#231f20;fill-opacity:1;fill-rule:nonzero;stroke:none"
             id="path214" /></g><g
           id="g216"
           transform="translate(312.6357,317.4476)"><path
             d="m 0,0 c 0,-0.603 -0.487,-1.09 -1.089,-1.09 -0.602,0 -1.09,0.487 -1.09,1.09 0,0.602 0.488,1.089 1.09,1.089 C -0.487,1.089 0,0.602 0,0"
             style="fill:#231f20;fill-opacity:1;fill-rule:nonzero;stroke:none"
             id="path218" /></g><g
           id="g220"
           transform="translate(299.4111,315.0424)"><path
             d="m 0,0 c 0,-0.602 -0.488,-1.089 -1.089,-1.089 -0.602,0 -1.09,0.487 -1.09,1.089 0,0.603 0.488,1.09 1.09,1.09 C -0.488,1.09 0,0.603 0,0"
             style="fill:#231f20;fill-opacity:1;fill-rule:nonzero;stroke:none"
             id="path222" /></g><g
           id="g224"
           transform="translate(313.8379,327.0648)"><path
             d="m 0,0 c 0,-0.602 -0.487,-1.089 -1.089,-1.089 -0.602,0 -1.09,0.487 -1.09,1.089 0,0.603 0.488,1.09 1.09,1.09 C -0.487,1.09 0,0.603 0,0"
             style="fill:#231f20;fill-opacity:1;fill-rule:nonzero;stroke:none"
             id="path226" /></g><g
           id="g228"
           transform="translate(274.1641,313.8402)"><path
             d="m 0,0 c 0,-0.602 -0.488,-1.089 -1.089,-1.089 -0.602,0 -1.09,0.487 -1.09,1.089 0,0.603 0.488,1.09 1.09,1.09 C -0.488,1.09 0,0.603 0,0"
             style="fill:#231f20;fill-opacity:1;fill-rule:nonzero;stroke:none"
             id="path230" /></g><g
           id="g232"
           transform="translate(282.5801,318.6498)"><path
             d="m 0,0 c 0,-0.603 -0.488,-1.09 -1.09,-1.09 -0.601,0 -1.089,0.487 -1.089,1.09 0,0.602 0.488,1.09 1.089,1.09 C -0.488,1.09 0,0.602 0,0"
             style="fill:#231f20;fill-opacity:1;fill-rule:nonzero;stroke:none"
             id="path234" /></g><g
           id="g236"
           transform="translate(192.0103,285.0853)"><path
             d="m 0,0 c 0,0 5.524,-55.939 66.066,-59.988 0,0 -77.01,-26.565 -86.577,65.669 0,0 17.39,-7.234 20.511,-5.681"
             style="fill:#605c55;fill-opacity:1;fill-rule:nonzero;stroke:none"
             id="path238" /></g><g
           id="g240"
           transform="translate(166.1206,270.7328)"><path
             d="m 0,0 c 0,0 2.316,-41.182 39.957,-52.519 0,0 -36.272,3.123 -43.65,26.259 0,0 -1.026,16.427 3.693,26.26"
             style="fill:#605c55;fill-opacity:1;fill-rule:nonzero;stroke:none"
             id="path242" /></g><g
           id="g244"
           transform="translate(254.6484,207.6869)"><path
             d="m 0,0 c 0,0 -56.202,-53.849 -17.574,-80.976 0,0 -64.14,30.04 -65.575,94.837 0,0 19.583,-76.617 83.149,-13.861"
             style="fill:#605c55;fill-opacity:1;fill-rule:nonzero;stroke:none"
             id="path246" /></g><g
           id="g248"
           transform="translate(295.8433,185.8236)"><path
             d="m 0,0 c 0,0 -33.485,-29.961 -62.442,-29.961 0,0 37.237,-19.029 62.442,29.961"
             style="fill:#605c55;fill-opacity:1;fill-rule:nonzero;stroke:none"
             id="path250" /></g><g
           id="g252"
           transform="translate(387.9561,268.014)"><path
             d="m 0,0 c 0,0 5.295,-26.317 -14.813,-57.897 0,0 -6.748,-13.766 -8.772,-30.367 0,0 6.883,15.791 21.054,26.723 0,0 24.497,20.648 2.531,61.541"
             style="fill:#605c55;fill-opacity:1;fill-rule:nonzero;stroke:none"
             id="path254" /></g><g
           id="g256"
           transform="translate(422.8047,280.0521)"><path
             d="m 0,0 c 0,0 28.615,-39.165 -2.561,-94.229 0,0 33.962,27.706 25.079,71.954 C 22.518,-22.275 5.8,1.106 0,0"
             style="fill:#605c55;fill-opacity:1;fill-rule:nonzero;stroke:none"
             id="path258" /></g><g
           id="g260"
           transform="translate(456.5186,239.1908)"><path
             d="m 0,0 c 0,0 4.618,-40.815 -19.675,-59.44 0,0 27.423,9.64 28.287,29.72 0,0 -5.759,24.033 -8.612,29.72"
             style="fill:#605c55;fill-opacity:1;fill-rule:nonzero;stroke:none"
             id="path262" /></g><g
           id="g264"
           transform="translate(465.1309,174.1302)"><path
             d="m 0,0 c 0,0 -25.453,-21.506 -44.887,-7.336 0,0 15.657,-20.425 41.231,-8.997 z"
             style="fill:#605c55;fill-opacity:1;fill-rule:nonzero;stroke:none"
             id="path266" /></g><g
           id="g268"
           transform="translate(458.5156,147.973)"><path
             d="m 0,0 c 0,0 -24.101,-17.458 -63.374,6.35 0,0 16.545,-33.28 55.846,-21.538 0,0 5.319,8.106 7.528,15.188"
             style="fill:#605c55;fill-opacity:1;fill-rule:nonzero;stroke:none"
             id="path270" /></g><g
           id="g272"
           transform="translate(332.3857,139.6673)"><path
             d="m 0,0 c 0,0 -29.051,4.479 -39.699,29.357 0,0 -0.105,-39.638 35.79,-38.749 z"
             style="fill:#605c55;fill-opacity:1;fill-rule:nonzero;stroke:none"
             id="path274" /></g><g
           id="g276"
           transform="translate(324.4072,118.6146)"><path
             d="m 0,0 c 0,0 -25.067,-11.003 -42.11,31.028 0,0 -3.29,-37.507 34.129,-47.223 z"
             style="fill:#605c55;fill-opacity:1;fill-rule:nonzero;stroke:none"
             id="path278" /></g><g
           id="g280"
           transform="translate(312.5742,93.5121)"><path
             d="m 0,0 c 0,0 -14.538,15.302 -30.351,13.766 0,0 20.955,-12.74 18.958,-25.197 z"
             style="fill:#605c55;fill-opacity:1;fill-rule:nonzero;stroke:none"
             id="path282" /></g><g
           id="g284"
           transform="translate(330.4824,135.0961)"><path
             d="m 0,0 c 0,0 25.386,4.173 47.249,33.929 0,0 -9.098,-42.314 -50.907,-46.363 z"
             style="fill:#605c55;fill-opacity:1;fill-rule:nonzero;stroke:none"
             id="path286" /></g><g
           id="g288"
           transform="translate(377.7314,147.3607)"><path
             d="m 0,0 c 0,0 14.171,-22.415 37.249,-21.33 0,0 -27.531,-12.275 -44.536,8.778 z"
             style="fill:#605c55;fill-opacity:1;fill-rule:nonzero;stroke:none"
             id="path290" /></g><g
           id="g292"
           transform="translate(364.3711,126.0306)"><path
             d="m 0,0 c 0,0 21.458,-23.395 45.346,-18.645 0,0 -32.979,-15.088 -49.082,6.775 0,0 1.712,9.165 3.736,11.87"
             style="fill:#605c55;fill-opacity:1;fill-rule:nonzero;stroke:none"
             id="path294" /></g><g
           id="g296"
           transform="translate(397.1025,84.3314)"><path
             d="m 0,0 c 0,0 -11.452,-1.751 -23.96,14.039 0,0 3.984,-17.005 14.814,-19.029 z"
             style="fill:#605c55;fill-opacity:1;fill-rule:nonzero;stroke:none"
             id="path298" /></g><g
           id="g300"
           transform="translate(330.7656,88.6537)"><path
             d="M 0,0 C 0,0 -3.055,10.01 15.79,15.221"
             style="fill:none;stroke:#605c55;stroke-width:2;stroke-linecap:butt;stroke-linejoin:miter;stroke-miterlimit:10;stroke-dasharray:none;stroke-opacity:1"
             id="path302" /></g><g
           id="g304"
           transform="translate(380.5449,77.1156)"><path
             d="m 0,0 c 0,0 -10.489,5.869 -18.798,27.328 0,0 -3.721,-22.631 11.396,-29.13 z"
             style="fill:#605c55;fill-opacity:1;fill-rule:nonzero;stroke:none"
             id="path306" /></g><g
           id="g308"
           transform="translate(414.1709,91.4877)"><path
             d="m 0,0 c 0,0 -8.907,20.502 16.195,34.543 0,0 8.502,5.944 18.219,-6.202 0,0 11.229,-5.41 16.546,6.202"
             style="fill:none;stroke:#605c55;stroke-width:2;stroke-linecap:butt;stroke-linejoin:miter;stroke-miterlimit:10;stroke-dasharray:none;stroke-opacity:1"
             id="path310" /></g><g
           id="g312"
           transform="translate(448.585,119.8285)"><path
             d="m 0,0 c 0,0 12.795,-30.842 -15.061,-45.584 0,0 -27.742,12.907 -19.09,35.242 0,0 13.128,20.722 24.45,16.544 0,0 8.398,-2.164 9.701,-6.202"
             style="fill:#605c55;fill-opacity:1;fill-rule:nonzero;stroke:none"
             id="path314" /></g><g
           id="g316"
           transform="translate(451.5186,118.8929)"><path
             d="m 0,0 c 0,0 14.733,-14.449 0,-30.037 0,0 17.69,5.493 6.997,30.037 z"
             style="fill:#605c55;fill-opacity:1;fill-rule:nonzero;stroke:none"
             id="path318" /></g><g
           id="g320"
           transform="translate(466.8047,80.9603)"><path
             d="m 0,0 c 0,0 17.835,32.201 -8.289,49.301 0,0 19.157,0.311 21.618,-22.875 C 13.329,26.426 8.907,11.337 0,0"
             style="fill:#605c55;fill-opacity:1;fill-rule:nonzero;stroke:none"
             id="path322" /></g><g
           id="g324"
           transform="translate(455.4678,140.0726)"><path
             d="M 0,0 -10.26,-16.667"
             style="fill:none;stroke:#605c55;stroke-width:2;stroke-linecap:butt;stroke-linejoin:miter;stroke-miterlimit:10;stroke-dasharray:none;stroke-opacity:1"
             id="path326" /></g><g
           id="g328"
           transform="translate(325.0195,93.1068)"><path
             d="m 0,0 c 0,0 -7.394,24.293 35.615,21.054 0,0 11.194,46.156 52.001,57.492"
             style="fill:none;stroke:#605c55;stroke-width:2;stroke-linecap:butt;stroke-linejoin:miter;stroke-miterlimit:10;stroke-dasharray:none;stroke-opacity:1"
             id="path330" /></g><g
           id="g332"
           transform="translate(339.9004,81.3656)"><path
             d="M 0,0 C 0,0 1.075,11.123 12.378,14.898"
             style="fill:none;stroke:#605c55;stroke-width:2;stroke-linecap:butt;stroke-linejoin:miter;stroke-miterlimit:10;stroke-dasharray:none;stroke-opacity:1"
             id="path334" /></g><g
           id="g336"
           transform="translate(270.5962,80.9603)"><path
             d="M 0,0 C 0,0 -0.207,18.025 11.627,17.41"
             style="fill:none;stroke:#605c55;stroke-width:2;stroke-linecap:butt;stroke-linejoin:miter;stroke-miterlimit:10;stroke-dasharray:none;stroke-opacity:1"
             id="path338" /></g><g
           id="g340"
           transform="translate(262.3481,80.9603)"><path
             d="M 0,0 C 0,0 -7.738,8.533 6.069,17.426"
             style="fill:none;stroke:#605c55;stroke-width:2;stroke-linecap:butt;stroke-linejoin:miter;stroke-miterlimit:10;stroke-dasharray:none;stroke-opacity:1"
             id="path342" /></g><g
           id="g344"
           transform="translate(312.5742,93.5121)"><path
             d="M 0,0 C 0,0 24.365,49.395 26.744,68.829"
             style="fill:none;stroke:#605c55;stroke-width:2;stroke-linecap:butt;stroke-linejoin:miter;stroke-miterlimit:10;stroke-dasharray:none;stroke-opacity:1"
             id="path346" /></g><g
           id="g348"
           transform="translate(216.7095,126.0306)"><path
             d="m 0,0 -1.076,-7.138 c 0,0 -22.121,-7.73 -5.926,-22.629 0,0 7.288,-7.206 11.336,-3.157 0,0 17.801,-15.598 34.016,15.469 0,0 -23.603,6.642 -38.35,17.455"
             style="fill:#f9a14b;fill-opacity:1;fill-rule:nonzero;stroke:none"
             id="path350" /></g><g
           id="g352"
           transform="translate(216.7095,126.0306)"><path
             d="m 0,0 -1.076,-7.138 c 0,0 -22.121,-7.73 -5.926,-22.629 0,0 7.288,-7.206 11.336,-3.157 0,0 17.801,-15.598 34.016,15.469 0,0 -23.603,6.642 -38.35,17.455 z"
             style="fill:none;stroke:#605c55;stroke-width:2;stroke-linecap:butt;stroke-linejoin:miter;stroke-miterlimit:10;stroke-dasharray:none;stroke-opacity:1"
             id="path354" /></g><g
           id="g356"
           transform="translate(221.0439,93.1068)"><path
             d="M 0,0 C 0,0 -3.03,9.529 6.988,14.279"
             style="fill:none;stroke:#605c55;stroke-width:2;stroke-linecap:butt;stroke-linejoin:miter;stroke-miterlimit:10;stroke-dasharray:none;stroke-opacity:1"
             id="path358" /></g><g
           id="g360"
           transform="translate(209.7075,96.264)"><path
             d="M 0,0 C 0,0 -4.22,9.855 8.098,15.872"
             style="fill:none;stroke:#605c55;stroke-width:2;stroke-linecap:butt;stroke-linejoin:miter;stroke-miterlimit:10;stroke-dasharray:none;stroke-opacity:1"
             id="path362" /></g><g
           id="g364"
           transform="translate(268.417,105.2533)"><path
             d="M 0,0 C 0,0 2.177,23.065 7.993,32.391"
             style="fill:none;stroke:#605c55;stroke-width:2;stroke-linecap:butt;stroke-linejoin:miter;stroke-miterlimit:10;stroke-dasharray:none;stroke-opacity:1"
             id="path366" /></g><g
           id="g368"
           transform="translate(326.8242,122.6625)"><path
             d="m 0,0 c 0,0 33.498,-0.803 50.907,46.362 0,0 12.517,37.81 27.312,24.268 0,0 6.163,-4.723 -9.902,-24.268 0,0 11.336,6.677 19.839,2.628 0,0 -39.324,-3.39 -55.265,-55.619 0,0 -38.413,3.253 -36.287,-21.3 h -8.807 z"
             style="fill:#ffffff;fill-opacity:1;fill-rule:nonzero;stroke:none"
             id="path370" /></g><g
           id="g372"
           transform="translate(57.4746,619.5863)"><path
             d="m 0,0 c 0,-6.488 -5.26,-11.748 -11.748,-11.748 -6.488,0 -11.748,5.26 -11.748,11.748 0,6.488 5.26,11.748 11.748,11.748 C -5.26,11.748 0,6.488 0,0"
             style="fill:#f9a14b;fill-opacity:1;fill-rule:nonzero;stroke:none"
             id="path374" /></g><g
           id="g376"
           transform="translate(57.4746,580.8993)"><path
             d="m 0,0 c 0,-6.488 -5.26,-11.748 -11.748,-11.748 -6.488,0 -11.748,5.26 -11.748,11.748 0,6.488 5.26,11.748 11.748,11.748 C -5.26,11.748 0,6.488 0,0"
             style="fill:#5f5c55;fill-opacity:1;fill-rule:nonzero;stroke:none"
             id="path378" /></g><g
           id="g380"
           transform="translate(178.77,619.5863)"><path
             d="m 0,0 c 0,-6.488 -5.26,-11.748 -11.748,-11.748 -6.488,0 -11.748,5.26 -11.748,11.748 0,6.488 5.26,11.748 11.748,11.748 C -5.26,11.748 0,6.488 0,0"
             style="fill:#e49d8b;fill-opacity:1;fill-rule:nonzero;stroke:none"
             id="path382" /></g><g
           id="g384"
           transform="translate(178.77,581.0248)"><path
             d="m 0,0 c 0,-6.488 -5.26,-11.748 -11.748,-11.748 -6.488,0 -11.748,5.26 -11.748,11.748 0,6.488 5.26,11.748 11.748,11.748 C -5.26,11.748 0,6.488 0,0"
             style="fill:#7ba8c2;fill-opacity:1;fill-rule:nonzero;stroke:none"
             id="path386" /></g></g></g><text
       transform="matrix(1,0,0,-1,74.6597,615.6641)"
       style="font-variant:normal;font-weight:normal;font-stretch:normal;font-size:12px;font-family:'MS Reference Sans Serif';-inkscape-font-specification:MSReferenceSansSerif;writing-mode:lr-tb;fill:#231f20;fill-opacity:1;fill-rule:nonzero;stroke:none"
       id="text396"><tspan
         x="0 4.224 11.856 19.068001 26.700001 34.332001"
         y="0"
         sodipodi:role="line"
         id="tspan388">f9a14b</tspan><tspan
         x="0 7.632 11.856 19.488001 25.74 33.372002"
         y="38.688"
         sodipodi:role="line"
         id="tspan390">5f5c55</tspan><tspan
         x="121.296 128.448 136.08 143.71201 151.188 158.82001"
         y="0"
         sodipodi:role="line"
         id="tspan392">e49d8b</tspan><tspan
         x="121.296 128.92799 136.40401 143.616 151.248 157.5"
         y="38.556"
         sodipodi:role="line"
         id="tspan394">7ba7c2</tspan></text></g></svg>
